#  ==========================================================================
#  
#  Wavefront OBJ format exported by Red-i Productions' "Riptide Pro"
#     (a commercial plugin for Cinema 4D PC & Mac, R9.6 or later)
#  
#  Red-i Productions
#  http://skinprops.com
#  
#  ==========================================================================
mtllib kiwi_half2.mtl
v 0 36 -0
v 30 0 -0
v 28.9778 0 -7.76457
v 25.9808 0 -15
v 21.2132 0 -21.2132
v 15 0 -25.9808
v 7.76457 0 -28.9778
v 1.83697e-15 0 -30
v -7.76457 0 -28.9778
v -15 0 -25.9808
v -21.2132 0 -21.2132
v -25.9808 0 -15
v -28.9778 0 -7.76457
v -30 0 -3.67394e-15
v -28.9778 0 7.76457
v -25.9808 0 15
v -21.2132 0 21.2132
v -15 0 25.9808
v -7.76457 0 28.9778
v -5.51091e-15 0 30
v 7.76457 0 28.9778
v 15 0 25.9808
v 21.2132 0 21.2132
v 25.9808 0 15
v 28.9778 0 7.76457
v 28.9778 9.31749 -0
v 27.9904 9.31749 -7.5
v 25.0955 9.31749 -14.4889
v 20.4904 9.31749 -20.4904
v 14.4889 9.31749 -25.0955
v 7.5 9.31749 -27.9904
v 1.77438e-15 9.31749 -28.9778
v -7.5 9.31749 -27.9904
v -14.4889 9.31749 -25.0955
v -20.4904 9.31749 -20.4904
v -25.0955 9.31749 -14.4889
v -27.9904 9.31749 -7.5
v -28.9778 9.31749 -3.54875e-15
v -27.9904 9.31749 7.5
v -25.0955 9.31749 14.4889
v -20.4904 9.31749 20.4904
v -14.4889 9.31749 25.0955
v -7.5 9.31749 27.9904
v -5.32313e-15 9.31749 28.9778
v 7.5 9.31749 27.9904
v 14.4889 9.31749 25.0955
v 20.4904 9.31749 20.4904
v 25.0955 9.31749 14.4889
v 27.9904 9.31749 7.5
v 25.9808 18 -0
v 25.0955 18 -6.72432
v 22.5 18 -12.9904
v 18.3712 18 -18.3712
v 12.9904 18 -22.5
v 6.72432 18 -25.0955
v 1.59086e-15 18 -25.9808
v -6.72432 18 -25.0955
v -12.9904 18 -22.5
v -18.3712 18 -18.3712
v -22.5 18 -12.9904
v -25.0955 18 -6.72432
v -25.9808 18 -3.18173e-15
v -25.0955 18 6.72432
v -22.5 18 12.9904
v -18.3712 18 18.3712
v -12.9904 18 22.5
v -6.72432 18 25.0955
v -4.77259e-15 18 25.9808
v 6.72432 18 25.0955
v 12.9904 18 22.5
v 18.3712 18 18.3712
v 22.5 18 12.9904
v 25.0955 18 6.72432
v 21.2132 25.4558 -0
v 20.4904 25.4558 -5.49038
v 18.3712 25.4558 -10.6066
v 15 25.4558 -15
v 10.6066 25.4558 -18.3712
v 5.49038 25.4558 -20.4904
v 1.29893e-15 25.4558 -21.2132
v -5.49038 25.4558 -20.4904
v -10.6066 25.4558 -18.3712
v -15 25.4558 -15
v -18.3712 25.4558 -10.6066
v -20.4904 25.4558 -5.49038
v -21.2132 25.4558 -2.59787e-15
v -20.4904 25.4558 5.49038
v -18.3712 25.4558 10.6066
v -15 25.4558 15
v -10.6066 25.4558 18.3712
v -5.49038 25.4558 20.4904
v -3.8968e-15 25.4558 21.2132
v 5.49038 25.4558 20.4904
v 10.6066 25.4558 18.3712
v 15 25.4558 15
v 18.3712 25.4558 10.6066
v 20.4904 25.4558 5.49038
v 15 31.1769 -0
v 14.4889 31.1769 -3.88229
v 12.9904 31.1769 -7.5
v 10.6066 31.1769 -10.6066
v 7.5 31.1769 -12.9904
v 3.88229 31.1769 -14.4889
v 9.18485e-16 31.1769 -15
v -3.88229 31.1769 -14.4889
v -7.5 31.1769 -12.9904
v -10.6066 31.1769 -10.6066
v -12.9904 31.1769 -7.5
v -14.4889 31.1769 -3.88229
v -15 31.1769 -1.83697e-15
v -14.4889 31.1769 3.88229
v -12.9904 31.1769 7.5
v -10.6066 31.1769 10.6066
v -7.5 31.1769 12.9904
v -3.88229 31.1769 14.4889
v -2.75546e-15 31.1769 15
v 3.88229 31.1769 14.4889
v 7.5 31.1769 12.9904
v 10.6066 31.1769 10.6066
v 12.9904 31.1769 7.5
v 14.4889 31.1769 3.88229
v 7.76457 34.7733 -0
v 7.5 34.7733 -2.00962
v 6.72432 34.7733 -3.88229
v 5.49038 34.7733 -5.49038
v 3.88229 34.7733 -6.72432
v 2.00962 34.7733 -7.5
v 4.75443e-16 34.7733 -7.76457
v -2.00962 34.7733 -7.5
v -3.88229 34.7733 -6.72432
v -5.49038 34.7733 -5.49038
v -6.72432 34.7733 -3.88229
v -7.5 34.7733 -2.00962
v -7.76457 34.7733 -9.50886e-16
v -7.5 34.7733 2.00962
v -6.72432 34.7733 3.88229
v -5.49038 34.7733 5.49038
v -3.88229 34.7733 6.72432
v -2.00962 34.7733 7.5
v -1.42633e-15 34.7733 7.76457
v 2.00962 34.7733 7.5
v 3.88229 34.7733 6.72432
v 5.49038 34.7733 5.49038
v 6.72432 34.7733 3.88229
v 7.5 34.7733 2.00962
v -5.1698 0 -29.3194
v 10.1825 0 -27.9763
v 22.8064 0 -19.1369
v -29.3194 0 5.1698
v -29.3194 0 -5.1698
v -22.8064 0 19.1369
v -22.8064 0 -19.1369
v -10.1825 0 -27.9763
v 29.3194 0 5.1698
v -10.1825 0 27.9763
v -27.9763 0 10.1825
v 27.9763 0 -10.1825
v 29.3194 0 -5.1698
v 22.8064 0 19.1369
v -5.1698 0 29.3194
v -19.1369 0 -22.8064
v 19.1369 0 -22.8064
v 19.1369 0 22.8064
v 5.1698 0 29.3194
v 10.1825 0 27.9763
v 5.1698 0 -29.3194
v 27.9763 0 10.1825
v -27.9763 0 -10.1825
v -19.1369 0 22.8064
# 169 vertices

vt 0.02775 0.50000
vt 0.00003 0.50000
vt 0.00003 0.58334
vt 0.04167 0.58334
vt 0.04167 0.50000
vt 0.05559 0.50000
vt 0.08333 0.58334
vt 0.08333 0.50000
vt 0.12500 0.58334
vt 0.12500 0.50000
vt 0.11107 0.50000
vt 0.13892 0.50000
vt 0.16667 0.58334
vt 0.16667 0.50000
vt 0.19440 0.50000
vt 0.20833 0.58334
vt 0.20833 0.50000
vt 0.25000 0.58334
vt 0.25000 0.50000
vt 0.22225 0.50000
vt 0.27774 0.50000
vt 0.29166 0.58334
vt 0.29166 0.50000
vt 0.30558 0.50000
vt 0.33333 0.58334
vt 0.33333 0.50000
vt 0.37500 0.58334
vt 0.37500 0.50000
vt 0.36107 0.50000
vt 0.38892 0.50000
vt 0.41666 0.58334
vt 0.41666 0.50000
vt 0.44440 0.50000
vt 0.45833 0.58334
vt 0.45833 0.50000
vt 0.50000 0.58334
vt 0.50000 0.50000
vt 0.47225 0.50000
vt 0.52773 0.50000
vt 0.54166 0.58334
vt 0.54166 0.50000
vt 0.55557 0.50000
vt 0.58333 0.58334
vt 0.58333 0.50000
vt 0.62500 0.58334
vt 0.62500 0.50000
vt 0.61107 0.50000
vt 0.63892 0.50000
vt 0.66666 0.58334
vt 0.66666 0.50000
vt 0.69440 0.50000
vt 0.70833 0.58334
vt 0.70833 0.50000
vt 0.75000 0.58334
vt 0.75000 0.50000
vt 0.72224 0.50000
vt 0.77773 0.50000
vt 0.79166 0.58334
vt 0.79166 0.50000
vt 0.80557 0.50000
vt 0.83333 0.58334
vt 0.83333 0.50000
vt 0.87500 0.58334
vt 0.87500 0.50000
vt 0.86107 0.50000
vt 0.88892 0.50000
vt 0.91666 0.58334
vt 0.91666 0.50000
vt 0.94440 0.50000
vt 0.95833 0.58334
vt 0.95833 0.50000
vt 1.00000 0.58334
vt 1.00000 0.50000
vt 0.97224 0.50000
vt 0.00003 0.66667
vt 0.04167 0.66667
vt 0.08333 0.66667
vt 0.12500 0.66667
vt 0.16667 0.66667
vt 0.20833 0.66667
vt 0.25000 0.66667
vt 0.29166 0.66667
vt 0.33333 0.66667
vt 0.37500 0.66667
vt 0.41666 0.66667
vt 0.45833 0.66667
vt 0.50000 0.66667
vt 0.54166 0.66667
vt 0.58333 0.66667
vt 0.62500 0.66667
vt 0.66666 0.66667
vt 0.70833 0.66667
vt 0.75000 0.66667
vt 0.79166 0.66667
vt 0.83333 0.66667
vt 0.87500 0.66667
vt 0.91666 0.66667
vt 0.95833 0.66667
vt 1.00000 0.66667
vt 0.00003 0.75000
vt 0.04167 0.75000
vt 0.08333 0.75000
vt 0.12500 0.75000
vt 0.16667 0.75000
vt 0.20833 0.75000
vt 0.25000 0.75000
vt 0.29166 0.75000
vt 0.33333 0.75000
vt 0.37500 0.75000
vt 0.41666 0.75000
vt 0.45833 0.75000
vt 0.50000 0.75000
vt 0.54166 0.75000
vt 0.58333 0.75000
vt 0.62500 0.75000
vt 0.66666 0.75000
vt 0.70833 0.75000
vt 0.75000 0.75000
vt 0.79166 0.75000
vt 0.83333 0.75000
vt 0.87500 0.75000
vt 0.91666 0.75000
vt 0.95833 0.75000
vt 1.00000 0.75000
vt 0.00003 0.83333
vt 0.04167 0.83333
vt 0.08333 0.83333
vt 0.12500 0.83333
vt 0.16667 0.83333
vt 0.20833 0.83333
vt 0.25000 0.83333
vt 0.29166 0.83333
vt 0.33333 0.83333
vt 0.37500 0.83333
vt 0.41666 0.83333
vt 0.45833 0.83333
vt 0.50000 0.83333
vt 0.54166 0.83333
vt 0.58333 0.83333
vt 0.62500 0.83333
vt 0.66666 0.83333
vt 0.70833 0.83333
vt 0.75000 0.83333
vt 0.79166 0.83333
vt 0.83333 0.83333
vt 0.87500 0.83333
vt 0.91666 0.83333
vt 0.95833 0.83333
vt 1.00000 0.83333
vt 0.00003 0.91667
vt 0.04167 0.91667
vt 0.08333 0.91667
vt 0.12500 0.91667
vt 0.16667 0.91667
vt 0.20833 0.91667
vt 0.25000 0.91667
vt 0.29166 0.91667
vt 0.33333 0.91667
vt 0.37500 0.91667
vt 0.41666 0.91667
vt 0.45833 0.91667
vt 0.50000 0.91667
vt 0.54166 0.91667
vt 0.58333 0.91667
vt 0.62500 0.91667
vt 0.66666 0.91667
vt 0.70833 0.91667
vt 0.75000 0.91667
vt 0.79166 0.91667
vt 0.83333 0.91667
vt 0.87500 0.91667
vt 0.91666 0.91667
vt 0.95833 0.91667
vt 1.00000 0.91667
vt 0.00003 0.99997
vt 0.04167 0.99997
vt 0.08333 0.99997
vt 0.12500 0.99997
vt 0.16667 0.99997
vt 0.20833 0.99997
vt 0.25000 0.99997
vt 0.29166 0.99997
vt 0.33333 0.99997
vt 0.37500 0.99997
vt 0.41666 0.99997
vt 0.45833 0.99997
vt 0.50000 0.99997
vt 0.54166 0.99997
vt 0.58333 0.99997
vt 0.62500 0.99997
vt 0.66666 0.99997
vt 0.70833 0.99997
vt 0.75000 0.99997
vt 0.79166 0.99997
vt 0.83333 0.99997
vt 0.87500 0.99997
vt 0.91666 0.99997
vt 0.95833 0.99997
# 198 texture coordinates

vn 0.985632 0.108133 -0.129759
vn 0.994036 0.109054 -9.54292e-07
vn 0.980031 0.197097 0.0263123
vn 0.953447 0.197099 -0.228234
vn 0.960165 0.109057 -0.257273
vn 0.918463 0.108135 -0.380438
vn 0.851479 0.182514 -0.491602
vn 0.860859 0.109058 -0.497019
vn 0.68993 0.219075 -0.68993
vn 0.70289 0.109053 -0.70289
vn 0.7887 0.108133 -0.605194
vn 0.605194 0.108133 -0.7887
vn 0.491602 0.182514 -0.851479
vn 0.497019 0.109058 -0.860859
vn 0.380438 0.108135 -0.918462
vn 0.252532 0.219077 -0.942461
vn 0.257274 0.109056 -0.960165
vn 0.0263123 0.197097 -0.980031
vn -9.6932e-07 0.109054 -0.994036
vn 0.129759 0.108132 -0.985632
vn -0.129759 0.108133 -0.985632
vn -0.228234 0.197099 -0.953447
vn -0.257273 0.109057 -0.960165
vn -0.380438 0.108135 -0.918463
vn -0.491602 0.182514 -0.851479
vn -0.497019 0.109058 -0.860859
vn -0.68993 0.219075 -0.68993
vn -0.70289 0.109053 -0.70289
vn -0.605194 0.108133 -0.7887
vn -0.7887 0.108133 -0.605194
vn -0.851479 0.182514 -0.491602
vn -0.860859 0.109058 -0.497019
vn -0.918462 0.108135 -0.380438
vn -0.942461 0.219077 -0.252532
vn -0.960165 0.109056 -0.257274
vn -0.980031 0.197097 -0.0263123
vn -0.994036 0.109054 9.54292e-07
vn -0.985632 0.108132 -0.129759
vn -0.985632 0.108133 0.129759
vn -0.953447 0.197099 0.228234
vn -0.960165 0.109057 0.257273
vn -0.918463 0.108135 0.380438
vn -0.851479 0.182514 0.491602
vn -0.860859 0.109058 0.497019
vn -0.68993 0.219075 0.68993
vn -0.70289 0.109053 0.70289
vn -0.7887 0.108133 0.605194
vn -0.605194 0.108133 0.7887
vn -0.491602 0.182514 0.851479
vn -0.497019 0.109058 0.860859
vn -0.380438 0.108135 0.918462
vn -0.252532 0.219077 0.942461
vn -0.257274 0.109056 0.960165
vn -0.0263123 0.197097 0.980031
vn 9.6932e-07 0.109054 0.994036
vn -0.129759 0.108132 0.985632
vn 0.129759 0.108133 0.985632
vn 0.228234 0.197099 0.953447
vn 0.257273 0.109057 0.960165
vn 0.380438 0.108135 0.918463
vn 0.491602 0.182514 0.851479
vn 0.497019 0.109058 0.860859
vn 0.68993 0.219075 0.68993
vn 0.70289 0.109053 0.70289
vn 0.605194 0.108133 0.7887
vn 0.7887 0.108133 0.605194
vn 0.851479 0.182514 0.491602
vn 0.860859 0.109058 0.497019
vn 0.918462 0.108135 0.380438
vn 0.942461 0.219077 0.252532
vn 0.960165 0.109056 0.257274
vn 0.985632 0.108132 0.129759
vn 0.900125 0.435631 1.32211e-08
vn 0.869454 0.435631 -0.23297
vn 0.779532 0.435631 -0.450062
vn 0.636485 0.435631 -0.636485
vn 0.450062 0.435631 -0.779532
vn 0.23297 0.435631 -0.869454
vn 1.32211e-08 0.435631 -0.900125
vn -0.23297 0.435631 -0.869454
vn -0.450062 0.435631 -0.779532
vn -0.636485 0.435631 -0.636485
vn -0.779532 0.435631 -0.450062
vn -0.869454 0.435631 -0.23297
vn -0.900125 0.435631 -1.51099e-08
vn -0.869454 0.435631 0.23297
vn -0.779532 0.435631 0.450062
vn -0.636485 0.435631 0.636485
vn -0.450062 0.435631 0.779532
vn -0.23297 0.435631 0.869454
vn -1.32211e-08 0.435631 0.900125
vn 0.23297 0.435631 0.869454
vn 0.450062 0.435631 0.779532
vn 0.636485 0.435631 0.636485
vn 0.779532 0.435631 0.450062
vn 0.869454 0.435631 0.23297
vn 0.766191 0.642613 1.51016e-08
vn 0.740084 0.642613 -0.198304
vn 0.663541 0.642613 -0.383096
vn 0.541779 0.642613 -0.541779
vn 0.383096 0.642613 -0.663541
vn 0.198304 0.642613 -0.740084
vn 1.51016e-08 0.642613 -0.766191
vn -0.198304 0.642613 -0.740084
vn -0.383096 0.642613 -0.663541
vn -0.541779 0.642613 -0.541779
vn -0.663541 0.642613 -0.383096
vn -0.740084 0.642613 -0.198304
vn -0.766191 0.642613 -1.32139e-08
vn -0.740084 0.642613 0.198304
vn -0.663541 0.642613 0.383096
vn -0.541779 0.642613 0.541779
vn -0.383096 0.642613 0.663541
vn -0.198304 0.642613 0.740084
vn -1.51016e-08 0.642613 0.766191
vn 0.198304 0.642613 0.740084
vn 0.383096 0.642613 0.663541
vn 0.541779 0.642613 0.541779
vn 0.663541 0.642613 0.383096
vn 0.740084 0.642613 0.198304
vn 0.566768 0.823877 -1.32075e-08
vn 0.547456 0.823878 -0.146689
vn 0.490835 0.823878 -0.283384
vn 0.400766 0.823877 -0.400766
vn 0.283384 0.823878 -0.490835
vn 0.146689 0.823878 -0.547456
vn -9.4339e-09 0.823877 -0.566768
vn -0.146689 0.823878 -0.547456
vn -0.283384 0.823878 -0.490835
vn -0.400766 0.823877 -0.400766
vn -0.490835 0.823878 -0.283384
vn -0.547456 0.823878 -0.146689
vn -0.566768 0.823877 1.13207e-08
vn -0.547456 0.823878 0.146689
vn -0.490835 0.823878 0.283384
vn -0.400766 0.823877 0.400766
vn -0.283384 0.823878 0.490835
vn -0.146689 0.823878 0.547456
vn 9.4339e-09 0.823877 0.566768
vn 0.146689 0.823878 0.547456
vn 0.283384 0.823878 0.490835
vn 0.400766 0.823877 0.400766
vn 0.490835 0.823878 0.283384
vn 0.547456 0.823878 0.146689
vn 0.303987 0.952676 -1.88627e-08
vn 0.293628 0.952676 -0.0786769
vn 0.26326 0.952676 -0.151993
vn 0.214951 0.952676 -0.214951
vn 0.151993 0.952676 -0.26326
vn 0.0786769 0.952676 -0.293628
vn -1.93343e-08 0.952676 -0.303986
vn -0.0786769 0.952676 -0.293628
vn -0.151993 0.952676 -0.26326
vn -0.214951 0.952676 -0.214951
vn -0.26326 0.952676 -0.151993
vn -0.293628 0.952676 -0.0786769
vn -0.303986 0.952676 1.93343e-08
vn -0.293628 0.952676 0.0786769
vn -0.26326 0.952676 0.151993
vn -0.214951 0.952676 0.214951
vn -0.151993 0.952676 0.26326
vn -0.0786769 0.952676 0.293628
vn 1.93343e-08 0.952676 0.303986
vn 0.0786769 0.952676 0.293628
vn 0.151993 0.952676 0.26326
vn 0.214951 0.952676 0.214951
vn 0.26326 0.952676 0.151993
vn 0.293628 0.952676 0.0786769
vn 0 1 2.27909e-09
# 169 vertex normals

g default_Grp
# r default_Rgn
usemtl Mat.1
f 27/4/4 26/3/3 2/2/2 158/1/1
f 158/1/1 3/5/5 27/4/4
f 28/7/7 27/4/4 3/5/5 157/6/6
f 157/6/6 4/8/8 28/7/7
f 28/7/7 148/11/11 5/10/10 29/9/9
f 148/11/11 28/7/7 4/8/8
f 30/13/13 29/9/9 5/10/10 162/12/12
f 162/12/12 6/14/14 30/13/13
f 147/15/15 30/13/13 6/14/14
f 30/13/13 147/15/15 7/17/17 31/16/16
f 166/20/20 8/19/19 32/18/18
f 166/20/20 32/18/18 31/16/16 7/17/17
f 33/22/22 32/18/18 8/19/19 146/21/21
f 146/21/21 9/23/23 33/22/22
f 34/25/25 33/22/22 9/23/23 153/24/24
f 153/24/24 10/26/26 34/25/25
f 34/25/25 161/29/29 11/28/28 35/27/27
f 161/29/29 34/25/25 10/26/26
f 36/31/31 35/27/27 11/28/28 152/30/30
f 152/30/30 12/32/32 36/31/31
f 168/33/33 36/31/31 12/32/32
f 36/31/31 168/33/33 13/35/35 37/34/34
f 150/38/38 14/37/37 38/36/36
f 150/38/38 38/36/36 37/34/34 13/35/35
f 39/40/40 38/36/36 14/37/37 149/39/39
f 149/39/39 15/41/41 39/40/40
f 40/43/43 39/40/40 15/41/41 156/42/42
f 156/42/42 16/44/44 40/43/43
f 40/43/43 151/47/47 17/46/46 41/45/45
f 151/47/47 40/43/43 16/44/44
f 42/49/49 41/45/45 17/46/46 169/48/48
f 169/48/48 18/50/50 42/49/49
f 155/51/51 42/49/49 18/50/50
f 42/49/49 155/51/51 19/53/53 43/52/52
f 160/56/56 20/55/55 44/54/54
f 160/56/56 44/54/54 43/52/52 19/53/53
f 45/58/58 44/54/54 20/55/55 164/57/57
f 164/57/57 21/59/59 45/58/58
f 46/61/61 45/58/58 21/59/59 165/60/60
f 165/60/60 22/62/62 46/61/61
f 46/61/61 163/65/65 23/64/64 47/63/63
f 163/65/65 46/61/61 22/62/62
f 48/67/67 47/63/63 23/64/64 159/66/66
f 159/66/66 24/68/68 48/67/67
f 167/69/69 48/67/67 24/68/68
f 48/67/67 167/69/69 25/71/71 49/70/70
f 154/74/72 2/73/2 26/72/3
f 154/74/72 26/72/3 49/70/70 25/71/71
f 27/4/4 51/76/74 50/75/73 26/3/3
f 28/7/7 52/77/75 51/76/74 27/4/4
f 29/9/9 53/78/76 52/77/75 28/7/7
f 30/13/13 54/79/77 53/78/76 29/9/9
f 31/16/16 55/80/78 54/79/77 30/13/13
f 32/18/18 56/81/79 55/80/78 31/16/16
f 33/22/22 57/82/80 56/81/79 32/18/18
f 34/25/25 58/83/81 57/82/80 33/22/22
f 35/27/27 59/84/82 58/83/81 34/25/25
f 36/31/31 60/85/83 59/84/82 35/27/27
f 37/34/34 61/86/84 60/85/83 36/31/31
f 38/36/36 62/87/85 61/86/84 37/34/34
f 39/40/40 63/88/86 62/87/85 38/36/36
f 40/43/43 64/89/87 63/88/86 39/40/40
f 41/45/45 65/90/88 64/89/87 40/43/43
f 42/49/49 66/91/89 65/90/88 41/45/45
f 43/52/52 67/92/90 66/91/89 42/49/49
f 44/54/54 68/93/91 67/92/90 43/52/52
f 45/58/58 69/94/92 68/93/91 44/54/54
f 46/61/61 70/95/93 69/94/92 45/58/58
f 47/63/63 71/96/94 70/95/93 46/61/61
f 48/67/67 72/97/95 71/96/94 47/63/63
f 49/70/70 73/98/96 72/97/95 48/67/67
f 26/72/3 50/99/73 73/98/96 49/70/70
f 51/76/74 75/101/98 74/100/97 50/75/73
f 52/77/75 76/102/99 75/101/98 51/76/74
f 53/78/76 77/103/100 76/102/99 52/77/75
f 54/79/77 78/104/101 77/103/100 53/78/76
f 55/80/78 79/105/102 78/104/101 54/79/77
f 56/81/79 80/106/103 79/105/102 55/80/78
f 57/82/80 81/107/104 80/106/103 56/81/79
f 58/83/81 82/108/105 81/107/104 57/82/80
f 59/84/82 83/109/106 82/108/105 58/83/81
f 60/85/83 84/110/107 83/109/106 59/84/82
f 61/86/84 85/111/108 84/110/107 60/85/83
f 62/87/85 86/112/109 85/111/108 61/86/84
f 63/88/86 87/113/110 86/112/109 62/87/85
f 64/89/87 88/114/111 87/113/110 63/88/86
f 65/90/88 89/115/112 88/114/111 64/89/87
f 66/91/89 90/116/113 89/115/112 65/90/88
f 67/92/90 91/117/114 90/116/113 66/91/89
f 68/93/91 92/118/115 91/117/114 67/92/90
f 69/94/92 93/119/116 92/118/115 68/93/91
f 70/95/93 94/120/117 93/119/116 69/94/92
f 71/96/94 95/121/118 94/120/117 70/95/93
f 72/97/95 96/122/119 95/121/118 71/96/94
f 73/98/96 97/123/120 96/122/119 72/97/95
f 50/99/73 74/124/97 97/123/120 73/98/96
f 75/101/98 99/126/122 98/125/121 74/100/97
f 76/102/99 100/127/123 99/126/122 75/101/98
f 77/103/100 101/128/124 100/127/123 76/102/99
f 78/104/101 102/129/125 101/128/124 77/103/100
f 79/105/102 103/130/126 102/129/125 78/104/101
f 80/106/103 104/131/127 103/130/126 79/105/102
f 81/107/104 105/132/128 104/131/127 80/106/103
f 82/108/105 106/133/129 105/132/128 81/107/104
f 83/109/106 107/134/130 106/133/129 82/108/105
f 84/110/107 108/135/131 107/134/130 83/109/106
f 85/111/108 109/136/132 108/135/131 84/110/107
f 86/112/109 110/137/133 109/136/132 85/111/108
f 87/113/110 111/138/134 110/137/133 86/112/109
f 88/114/111 112/139/135 111/138/134 87/113/110
f 89/115/112 113/140/136 112/139/135 88/114/111
f 90/116/113 114/141/137 113/140/136 89/115/112
f 91/117/114 115/142/138 114/141/137 90/116/113
f 92/118/115 116/143/139 115/142/138 91/117/114
f 93/119/116 117/144/140 116/143/139 92/118/115
f 94/120/117 118/145/141 117/144/140 93/119/116
f 95/121/118 119/146/142 118/145/141 94/120/117
f 96/122/119 120/147/143 119/146/142 95/121/118
f 97/123/120 121/148/144 120/147/143 96/122/119
f 74/124/97 98/149/121 121/148/144 97/123/120
f 99/126/122 123/151/146 122/150/145 98/125/121
f 100/127/123 124/152/147 123/151/146 99/126/122
f 101/128/124 125/153/148 124/152/147 100/127/123
f 102/129/125 126/154/149 125/153/148 101/128/124
f 103/130/126 127/155/150 126/154/149 102/129/125
f 104/131/127 128/156/151 127/155/150 103/130/126
f 105/132/128 129/157/152 128/156/151 104/131/127
f 106/133/129 130/158/153 129/157/152 105/132/128
f 107/134/130 131/159/154 130/158/153 106/133/129
f 108/135/131 132/160/155 131/159/154 107/134/130
f 109/136/132 133/161/156 132/160/155 108/135/131
f 110/137/133 134/162/157 133/161/156 109/136/132
f 111/138/134 135/163/158 134/162/157 110/137/133
f 112/139/135 136/164/159 135/163/158 111/138/134
f 113/140/136 137/165/160 136/164/159 112/139/135
f 114/141/137 138/166/161 137/165/160 113/140/136
f 115/142/138 139/167/162 138/166/161 114/141/137
f 116/143/139 140/168/163 139/167/162 115/142/138
f 117/144/140 141/169/164 140/168/163 116/143/139
f 118/145/141 142/170/165 141/169/164 117/144/140
f 119/146/142 143/171/166 142/170/165 118/145/141
f 120/147/143 144/172/167 143/171/166 119/146/142
f 121/148/144 145/173/168 144/172/167 120/147/143
f 98/149/121 122/174/145 145/173/168 121/148/144
f 1/175/169 122/150/145 123/151/146
f 1/176/169 123/151/146 124/152/147
f 1/177/169 124/152/147 125/153/148
f 1/178/169 125/153/148 126/154/149
f 1/179/169 126/154/149 127/155/150
f 1/180/169 127/155/150 128/156/151
f 1/181/169 128/156/151 129/157/152
f 1/182/169 129/157/152 130/158/153
f 1/183/169 130/158/153 131/159/154
f 1/184/169 131/159/154 132/160/155
f 1/185/169 132/160/155 133/161/156
f 1/186/169 133/161/156 134/162/157
f 1/187/169 134/162/157 135/163/158
f 1/188/169 135/163/158 136/164/159
f 1/189/169 136/164/159 137/165/160
f 1/190/169 137/165/160 138/166/161
f 1/191/169 138/166/161 139/167/162
f 1/192/169 139/167/162 140/168/163
f 1/193/169 140/168/163 141/169/164
f 1/194/169 141/169/164 142/170/165
f 1/195/169 142/170/165 143/171/166
f 1/196/169 143/171/166 144/172/167
f 1/197/169 144/172/167 145/173/168
f 1/198/169 145/173/168 122/174/145
# 168 facets

v 0 0 -0
v 30 0 -0
v 29.3194 0 -5.1698
v -5.1698 0 29.3194
v -22.8064 0 -19.1369
v -25.9808 0 -15
v 27.9763 0 -10.1825
v 10.1825 0 27.9763
v -27.9763 0 -10.1825
v 25.9808 0 -15
v 22.8064 0 -19.1369
v 15 0 25.9808
v 19.1369 0 -22.8064
v -29.3194 0 -5.1698
v 15 0 -25.9808
v 22.8064 0 19.1369
v 10.1825 0 -27.9763
v 25.9808 0 15
v 1.77636e-15 0 -30
v 5.1698 0 -29.3194
v 27.9763 0 10.1825
v -5.1698 0 -29.3194
v -19.1369 0 22.8064
v -10.1825 0 -27.9763
v -15 0 25.9808
v -19.1369 0 -22.8064
v -15 0 -25.9808
v -10.1825 0 27.9763
v -5.51091e-15 0 30
v -27.9763 0 10.1825
v -30 0 -3.55271e-15
v 19.1369 0 22.8064
v -29.3194 0 5.1698
v -25.9808 0 15
v -22.8064 0 19.1369
v 29.3194 0 5.1698
v 5.1698 0 29.3194
v 28.9778 0 7.76457
v 28.9778 0 -7.76457
v 7.76457 0 -28.9778
v -21.2132 0 -21.2132
v -7.76457 0 28.9778
v -7.76457 0 -28.9778
v 21.2132 0 -21.2132
v 7.76457 0 28.9778
v -28.9778 0 7.76457
v -28.9778 0 -7.76457
v 21.2132 0 21.2132
v -21.2132 0 21.2132
# 49 vertices

vt 0.50000 0.50000
vt 0.80000 0.50000
vt 0.79319 0.55170
vt 0.77976 0.60183
vt 0.78978 0.57765
vt 0.75981 0.65000
vt 0.72806 0.69137
vt 0.69137 0.72806
vt 0.71213 0.71213
vt 0.65000 0.75981
vt 0.60183 0.77976
vt 0.57765 0.78978
vt 0.55170 0.79319
vt 0.50000 0.80000
vt 0.44830 0.79319
vt 0.39817 0.77976
vt 0.42235 0.78978
vt 0.35000 0.75981
vt 0.30863 0.72806
vt 0.28787 0.71213
vt 0.27194 0.69137
vt 0.24019 0.65000
vt 0.22024 0.60183
vt 0.21022 0.57765
vt 0.20681 0.55170
vt 0.20000 0.50000
vt 0.20681 0.44830
vt 0.22024 0.39817
vt 0.21022 0.42235
vt 0.24019 0.35000
vt 0.27194 0.30863
vt 0.30863 0.27194
vt 0.28787 0.28787
vt 0.35000 0.24019
vt 0.39817 0.22024
vt 0.42235 0.21022
vt 0.44830 0.20681
vt 0.50000 0.20000
vt 0.55170 0.20681
vt 0.60183 0.22024
vt 0.57765 0.21022
vt 0.65000 0.24019
vt 0.69137 0.27194
vt 0.72806 0.30863
vt 0.71213 0.28787
vt 0.75981 0.35000
vt 0.77976 0.39817
vt 0.78978 0.42235
vt 0.79319 0.44830
# 49 texture coordinates

vn 0 -1 -0
# 1 vertex normals

usemtl Mat
f 172/201/170 171/200/170 170/199/170
f 208/203/170 172/201/170 170/199/170 176/202/170
f 179/204/170 176/202/170 170/199/170
f 180/205/170 179/204/170 170/199/170
f 213/207/170 180/205/170 170/199/170 182/206/170
f 184/208/170 182/206/170 170/199/170
f 186/209/170 184/208/170 170/199/170
f 170/199/170 189/211/170 209/210/170 186/209/170
f 188/212/170 189/211/170 170/199/170
f 191/213/170 188/212/170 170/199/170
f 212/215/170 191/213/170 170/199/170 193/214/170
f 196/216/170 193/214/170 170/199/170
f 195/217/170 196/216/170 170/199/170
f 170/199/170 174/219/170 210/218/170 195/217/170
f 175/220/170 174/219/170 170/199/170
f 178/221/170 175/220/170 170/199/170
f 170/199/170 183/223/170 216/222/170 178/221/170
f 200/224/170 183/223/170 170/199/170
f 202/225/170 200/224/170 170/199/170
f 215/227/170 202/225/170 170/199/170 199/226/170
f 203/228/170 199/226/170 170/199/170
f 204/229/170 203/228/170 170/199/170
f 218/231/170 204/229/170 170/199/170 192/230/170
f 194/232/170 192/230/170 170/199/170
f 197/233/170 194/232/170 170/199/170
f 170/199/170 173/235/170 211/234/170 197/233/170
f 198/236/170 173/235/170 170/199/170
f 206/237/170 198/236/170 170/199/170
f 214/239/170 206/237/170 170/199/170 177/238/170
f 181/240/170 177/238/170 170/199/170
f 201/241/170 181/240/170 170/199/170
f 217/243/170 201/241/170 170/199/170 185/242/170
f 187/244/170 185/242/170 170/199/170
f 190/245/170 187/244/170 170/199/170
f 170/199/170 205/247/170 207/246/170 190/245/170
f 171/200/170 205/247/170 170/199/170
# 36 facets

