#  ==========================================================================
#  
#  Wavefront OBJ format exported by Red-i Productions' "Riptide Pro"
#     (a commercial plugin for Cinema 4D PC & Mac, R9.6 or later)
#  
#  Red-i Productions
#  http://skinprops.com
#  
#  ==========================================================================
mtllib kiwi_half1.mtl
v 0 -36 -0
v 7.76457 -34.7733 -0
v 7.5 -34.7733 -2.00962
v 6.72432 -34.7733 -3.88229
v 5.49038 -34.7733 -5.49038
v 3.88229 -34.7733 -6.72432
v 2.00962 -34.7733 -7.5
v 4.75443e-16 -34.7733 -7.76457
v -2.00962 -34.7733 -7.5
v -3.88229 -34.7733 -6.72432
v -5.49038 -34.7733 -5.49038
v -6.72432 -34.7733 -3.88229
v -7.5 -34.7733 -2.00962
v -7.76457 -34.7733 -9.50886e-16
v -7.5 -34.7733 2.00962
v -6.72432 -34.7733 3.88229
v -5.49038 -34.7733 5.49038
v -3.88229 -34.7733 6.72432
v -2.00962 -34.7733 7.5
v -1.42633e-15 -34.7733 7.76457
v 2.00962 -34.7733 7.5
v 3.88229 -34.7733 6.72432
v 5.49038 -34.7733 5.49038
v 6.72432 -34.7733 3.88229
v 7.5 -34.7733 2.00962
v 15 -31.1769 -0
v 14.4889 -31.1769 -3.88229
v 12.9904 -31.1769 -7.5
v 10.6066 -31.1769 -10.6066
v 7.5 -31.1769 -12.9904
v 3.88229 -31.1769 -14.4889
v 9.18485e-16 -31.1769 -15
v -3.88229 -31.1769 -14.4889
v -7.5 -31.1769 -12.9904
v -10.6066 -31.1769 -10.6066
v -12.9904 -31.1769 -7.5
v -14.4889 -31.1769 -3.88229
v -15 -31.1769 -1.83697e-15
v -14.4889 -31.1769 3.88229
v -12.9904 -31.1769 7.5
v -10.6066 -31.1769 10.6066
v -7.5 -31.1769 12.9904
v -3.88229 -31.1769 14.4889
v -2.75546e-15 -31.1769 15
v 3.88229 -31.1769 14.4889
v 7.5 -31.1769 12.9904
v 10.6066 -31.1769 10.6066
v 12.9904 -31.1769 7.5
v 14.4889 -31.1769 3.88229
v 21.2132 -25.4558 -0
v 20.4904 -25.4558 -5.49038
v 18.3712 -25.4558 -10.6066
v 15 -25.4558 -15
v 10.6066 -25.4558 -18.3712
v 5.49038 -25.4558 -20.4904
v 1.29893e-15 -25.4558 -21.2132
v -5.49038 -25.4558 -20.4904
v -10.6066 -25.4558 -18.3712
v -15 -25.4558 -15
v -18.3712 -25.4558 -10.6066
v -20.4904 -25.4558 -5.49038
v -21.2132 -25.4558 -2.59787e-15
v -20.4904 -25.4558 5.49038
v -18.3712 -25.4558 10.6066
v -15 -25.4558 15
v -10.6066 -25.4558 18.3712
v -5.49038 -25.4558 20.4904
v -3.8968e-15 -25.4558 21.2132
v 5.49038 -25.4558 20.4904
v 10.6066 -25.4558 18.3712
v 15 -25.4558 15
v 18.3712 -25.4558 10.6066
v 20.4904 -25.4558 5.49038
v 25.9808 -18 -0
v 25.0955 -18 -6.72432
v 22.5 -18 -12.9904
v 18.3712 -18 -18.3712
v 12.9904 -18 -22.5
v 6.72432 -18 -25.0955
v 1.59086e-15 -18 -25.9808
v -6.72432 -18 -25.0955
v -12.9904 -18 -22.5
v -18.3712 -18 -18.3712
v -22.5 -18 -12.9904
v -25.0955 -18 -6.72432
v -25.9808 -18 -3.18173e-15
v -25.0955 -18 6.72432
v -22.5 -18 12.9904
v -18.3712 -18 18.3712
v -12.9904 -18 22.5
v -6.72432 -18 25.0955
v -4.77259e-15 -18 25.9808
v 6.72432 -18 25.0955
v 12.9904 -18 22.5
v 18.3712 -18 18.3712
v 22.5 -18 12.9904
v 25.0955 -18 6.72432
v 28.9778 -9.31749 -0
v 27.9904 -9.31749 -7.5
v 25.0955 -9.31749 -14.4889
v 20.4904 -9.31749 -20.4904
v 14.4889 -9.31749 -25.0955
v 7.5 -9.31749 -27.9904
v 1.77438e-15 -9.31749 -28.9778
v -7.5 -9.31749 -27.9904
v -14.4889 -9.31749 -25.0955
v -20.4904 -9.31749 -20.4904
v -25.0955 -9.31749 -14.4889
v -27.9904 -9.31749 -7.5
v -28.9778 -9.31749 -3.54875e-15
v -27.9904 -9.31749 7.5
v -25.0955 -9.31749 14.4889
v -20.4904 -9.31749 20.4904
v -14.4889 -9.31749 25.0955
v -7.5 -9.31749 27.9904
v -5.32313e-15 -9.31749 28.9778
v 7.5 -9.31749 27.9904
v 14.4889 -9.31749 25.0955
v 20.4904 -9.31749 20.4904
v 25.0955 -9.31749 14.4889
v 27.9904 -9.31749 7.5
v 30 0 -0
v 28.9778 0 -7.76457
v 25.9808 0 -15
v 21.2132 0 -21.2132
v 15 0 -25.9808
v 7.76457 0 -28.9778
v 1.83697e-15 0 -30
v -7.76457 0 -28.9778
v -15 0 -25.9808
v -21.2132 0 -21.2132
v -25.9808 0 -15
v -28.9778 0 -7.76457
v -30 0 -3.67394e-15
v -28.9778 0 7.76457
v -25.9808 0 15
v -21.2132 0 21.2132
v -15 0 25.9808
v -7.76457 0 28.9778
v -5.51091e-15 0 30
v 7.76457 0 28.9778
v 15 0 25.9808
v 21.2132 0 21.2132
v 25.9808 0 15
v 28.9778 0 7.76457
v -5.1698 0 -29.3194
v 10.1825 0 -27.9763
v 22.8064 0 -19.1369
v -29.3194 0 5.1698
v -29.3194 0 -5.1698
v -22.8064 0 19.1369
v -22.8064 0 -19.1369
v -10.1825 0 -27.9763
v 29.3194 0 5.1698
v -10.1825 0 27.9763
v -27.9763 0 10.1825
v 27.9763 0 -10.1825
v 29.3194 0 -5.1698
v 22.8064 0 19.1369
v -5.1698 0 29.3194
v -19.1369 0 -22.8064
v 19.1369 0 -22.8064
v 19.1369 0 22.8064
v 5.1698 0 29.3194
v 10.1825 0 27.9763
v 5.1698 0 -29.3194
v 27.9763 0 10.1825
v -27.9763 0 -10.1825
v -19.1369 0 22.8064
# 169 vertices

vt 0.00003 0.08334
vt 0.00003 0.16667
vt 0.04167 0.16667
vt 0.04167 0.08334
vt 0.08333 0.16667
vt 0.08333 0.08334
vt 0.12500 0.16667
vt 0.12500 0.08334
vt 0.16667 0.16667
vt 0.16667 0.08334
vt 0.20833 0.16667
vt 0.20833 0.08334
vt 0.25000 0.16667
vt 0.25000 0.08334
vt 0.29166 0.16667
vt 0.29166 0.08334
vt 0.33333 0.16667
vt 0.33333 0.08334
vt 0.37500 0.16667
vt 0.37500 0.08334
vt 0.41666 0.16667
vt 0.41666 0.08334
vt 0.45833 0.16667
vt 0.45833 0.08334
vt 0.50000 0.16667
vt 0.50000 0.08334
vt 0.54166 0.16667
vt 0.54166 0.08334
vt 0.58333 0.16667
vt 0.58333 0.08334
vt 0.62500 0.16667
vt 0.62500 0.08334
vt 0.66666 0.16667
vt 0.66666 0.08334
vt 0.70833 0.16667
vt 0.70833 0.08334
vt 0.75000 0.16667
vt 0.75000 0.08334
vt 0.79166 0.16667
vt 0.79166 0.08334
vt 0.83333 0.16667
vt 0.83333 0.08334
vt 0.87500 0.16667
vt 0.87500 0.08334
vt 0.91666 0.16667
vt 0.91666 0.08334
vt 0.95833 0.16667
vt 0.95833 0.08334
vt 1.00000 0.16667
vt 1.00000 0.08334
vt 0.00003 0.25000
vt 0.04167 0.25000
vt 0.08333 0.25000
vt 0.12500 0.25000
vt 0.16667 0.25000
vt 0.20833 0.25000
vt 0.25000 0.25000
vt 0.29166 0.25000
vt 0.33333 0.25000
vt 0.37500 0.25000
vt 0.41666 0.25000
vt 0.45833 0.25000
vt 0.50000 0.25000
vt 0.54166 0.25000
vt 0.58333 0.25000
vt 0.62500 0.25000
vt 0.66666 0.25000
vt 0.70833 0.25000
vt 0.75000 0.25000
vt 0.79166 0.25000
vt 0.83333 0.25000
vt 0.87500 0.25000
vt 0.91666 0.25000
vt 0.95833 0.25000
vt 1.00000 0.25000
vt 0.00003 0.33334
vt 0.04167 0.33334
vt 0.08333 0.33334
vt 0.12500 0.33334
vt 0.16667 0.33334
vt 0.20833 0.33334
vt 0.25000 0.33334
vt 0.29166 0.33334
vt 0.33333 0.33334
vt 0.37500 0.33334
vt 0.41666 0.33334
vt 0.45833 0.33334
vt 0.50000 0.33334
vt 0.54166 0.33334
vt 0.58333 0.33334
vt 0.62500 0.33334
vt 0.66666 0.33334
vt 0.70833 0.33334
vt 0.75000 0.33334
vt 0.79166 0.33334
vt 0.83333 0.33334
vt 0.87500 0.33334
vt 0.91666 0.33334
vt 0.95833 0.33334
vt 1.00000 0.33334
vt 0.00003 0.41667
vt 0.04167 0.41667
vt 0.08333 0.41667
vt 0.12500 0.41667
vt 0.16667 0.41667
vt 0.20833 0.41667
vt 0.25000 0.41667
vt 0.29166 0.41667
vt 0.33333 0.41667
vt 0.37500 0.41667
vt 0.41666 0.41667
vt 0.45833 0.41667
vt 0.50000 0.41667
vt 0.54166 0.41667
vt 0.58333 0.41667
vt 0.62500 0.41667
vt 0.66666 0.41667
vt 0.70833 0.41667
vt 0.75000 0.41667
vt 0.79166 0.41667
vt 0.83333 0.41667
vt 0.87500 0.41667
vt 0.91666 0.41667
vt 0.95833 0.41667
vt 1.00000 0.41667
vt 0.00003 0.50000
vt 0.02775 0.50000
vt 0.04167 0.50000
vt 0.08333 0.50000
vt 0.05559 0.50000
vt 0.11107 0.50000
vt 0.12500 0.50000
vt 0.13892 0.50000
vt 0.16667 0.50000
vt 0.19440 0.50000
vt 0.20833 0.50000
vt 0.22225 0.50000
vt 0.25000 0.50000
vt 0.27774 0.50000
vt 0.29166 0.50000
vt 0.33333 0.50000
vt 0.30558 0.50000
vt 0.36107 0.50000
vt 0.37500 0.50000
vt 0.38892 0.50000
vt 0.41666 0.50000
vt 0.44440 0.50000
vt 0.45833 0.50000
vt 0.47225 0.50000
vt 0.50000 0.50000
vt 0.52773 0.50000
vt 0.54166 0.50000
vt 0.58333 0.50000
vt 0.55557 0.50000
vt 0.61107 0.50000
vt 0.62500 0.50000
vt 0.63892 0.50000
vt 0.66666 0.50000
vt 0.69440 0.50000
vt 0.70833 0.50000
vt 0.72224 0.50000
vt 0.75000 0.50000
vt 0.77773 0.50000
vt 0.79166 0.50000
vt 0.83333 0.50000
vt 0.80557 0.50000
vt 0.86107 0.50000
vt 0.87500 0.50000
vt 0.88892 0.50000
vt 0.91666 0.50000
vt 0.94440 0.50000
vt 0.95833 0.50000
vt 0.97224 0.50000
vt 1.00000 0.50000
vt 0.00003 0.00000
vt 0.04167 0.00000
vt 0.08333 0.00000
vt 0.12500 0.00000
vt 0.16667 0.00000
vt 0.20833 0.00000
vt 0.25000 0.00000
vt 0.29166 0.00000
vt 0.33333 0.00000
vt 0.37500 0.00000
vt 0.41666 0.00000
vt 0.45833 0.00000
vt 0.50000 0.00000
vt 0.54166 0.00000
vt 0.58333 0.00000
vt 0.62500 0.00000
vt 0.66666 0.00000
vt 0.70833 0.00000
vt 0.75000 0.00000
vt 0.79166 0.00000
vt 0.83333 0.00000
vt 0.87500 0.00000
vt 0.91666 0.00000
vt 0.95833 0.00000
# 198 texture coordinates

vn 0.303986 -0.952676 1.22608e-08
vn 0.566768 -0.823877 8.49051e-09
vn 0.547456 -0.823878 -0.146689
vn 0.293628 -0.952676 -0.0786769
vn 0.490835 -0.823878 -0.283384
vn 0.26326 -0.952676 -0.151993
vn 0.400766 -0.823877 -0.400766
vn 0.214951 -0.952676 -0.214951
vn 0.283384 -0.823878 -0.490835
vn 0.151993 -0.952676 -0.26326
vn 0.146689 -0.823878 -0.547456
vn 0.0786769 -0.952676 -0.293628
vn 1.13207e-08 -0.823877 -0.566768
vn 1.32039e-08 -0.952676 -0.303987
vn -0.146689 -0.823878 -0.547456
vn -0.0786769 -0.952676 -0.293628
vn -0.283384 -0.823878 -0.490835
vn -0.151993 -0.952676 -0.26326
vn -0.400766 -0.823877 -0.400766
vn -0.214951 -0.952676 -0.214951
vn -0.490835 -0.823878 -0.283384
vn -0.26326 -0.952676 -0.151993
vn -0.547456 -0.823878 -0.146689
vn -0.293628 -0.952676 -0.0786769
vn -0.566768 -0.823877 -1.13207e-08
vn -0.303987 -0.952676 -1.22608e-08
vn -0.547456 -0.823878 0.146689
vn -0.293628 -0.952676 0.0786769
vn -0.490835 -0.823878 0.283384
vn -0.26326 -0.952676 0.151993
vn -0.400766 -0.823877 0.400766
vn -0.214951 -0.952676 0.214951
vn -0.283384 -0.823878 0.490835
vn -0.151993 -0.952676 0.26326
vn -0.146689 -0.823878 0.547456
vn -0.0786769 -0.952676 0.293628
vn -1.13207e-08 -0.823877 0.566768
vn -1.32039e-08 -0.952676 0.303987
vn 0.146689 -0.823878 0.547456
vn 0.0786769 -0.952676 0.293628
vn 0.283384 -0.823878 0.490835
vn 0.151993 -0.952676 0.26326
vn 0.400766 -0.823877 0.400766
vn 0.214951 -0.952676 0.214951
vn 0.490835 -0.823878 0.283384
vn 0.26326 -0.952676 0.151993
vn 0.547456 -0.823878 0.146689
vn 0.293628 -0.952676 0.0786769
vn 0.766191 -0.642613 -1.51016e-08
vn 0.740084 -0.642613 -0.198304
vn 0.663541 -0.642613 -0.383096
vn 0.541779 -0.642613 -0.541779
vn 0.383096 -0.642613 -0.663541
vn 0.198304 -0.642613 -0.740084
vn -1.32139e-08 -0.642613 -0.766191
vn -0.198304 -0.642613 -0.740084
vn -0.383096 -0.642613 -0.663541
vn -0.541779 -0.642613 -0.541779
vn -0.663541 -0.642613 -0.383096
vn -0.740084 -0.642613 -0.198304
vn -0.766191 -0.642613 1.32139e-08
vn -0.740084 -0.642613 0.198304
vn -0.663541 -0.642613 0.383096
vn -0.541779 -0.642613 0.541779
vn -0.383096 -0.642613 0.663541
vn -0.198304 -0.642613 0.740084
vn 1.32139e-08 -0.642613 0.766191
vn 0.198304 -0.642613 0.740084
vn 0.383096 -0.642613 0.663541
vn 0.541779 -0.642613 0.541779
vn 0.663541 -0.642613 0.383096
vn 0.740084 -0.642613 0.198304
vn 0.900125 -0.435631 -1.69986e-08
vn 0.869454 -0.435631 -0.23297
vn 0.779532 -0.435631 -0.450062
vn 0.636485 -0.435631 -0.636485
vn 0.450062 -0.435631 -0.779532
vn 0.23297 -0.435631 -0.869454
vn -1.32211e-08 -0.435631 -0.900125
vn -0.23297 -0.435631 -0.869454
vn -0.450062 -0.435631 -0.779532
vn -0.636485 -0.435631 -0.636485
vn -0.779532 -0.435631 -0.450062
vn -0.869454 -0.435631 -0.23297
vn -0.900125 -0.435631 1.69986e-08
vn -0.869454 -0.435631 0.23297
vn -0.779532 -0.435631 0.450062
vn -0.636485 -0.435631 0.636485
vn -0.450062 -0.435631 0.779532
vn -0.23297 -0.435631 0.869454
vn 1.32211e-08 -0.435631 0.900125
vn 0.23297 -0.435631 0.869454
vn 0.450062 -0.435631 0.779532
vn 0.636485 -0.435631 0.636485
vn 0.779532 -0.435631 0.450062
vn 0.869454 -0.435631 0.23297
vn 0.980031 -0.197097 -0.0263123
vn 0.942461 -0.219077 -0.252532
vn 0.851479 -0.182514 -0.491602
vn 0.68993 -0.219075 -0.68993
vn 0.491602 -0.182514 -0.851479
vn 0.252532 -0.219077 -0.942461
vn 0 -0.182512 -0.983204
vn -0.252532 -0.219077 -0.942461
vn -0.491602 -0.182514 -0.851479
vn -0.68993 -0.219075 -0.68993
vn -0.851479 -0.182514 -0.491602
vn -0.942461 -0.219077 -0.252532
vn -0.983204 -0.182512 7.55382e-09
vn -0.942461 -0.219077 0.252532
vn -0.851479 -0.182514 0.491602
vn -0.68993 -0.219075 0.68993
vn -0.491602 -0.182514 0.851479
vn -0.252532 -0.219077 0.942461
vn 0 -0.182512 0.983204
vn 0.252532 -0.219077 0.942461
vn 0.491602 -0.182514 0.851479
vn 0.68993 -0.219075 0.68993
vn 0.851479 -0.182514 0.491602
vn 0.953447 -0.197099 0.228234
vn 0.994036 -0.109054 9.54292e-07
vn 0.985632 -0.108132 -0.129759
vn 0.960165 -0.109056 -0.257274
vn 0.860859 -0.109058 -0.497019
vn 0.918462 -0.108135 -0.380438
vn 0.7887 -0.108133 -0.605194
vn 0.70289 -0.109053 -0.70289
vn 0.605194 -0.108133 -0.7887
vn 0.497019 -0.109058 -0.860859
vn 0.380438 -0.108135 -0.918462
vn 0.257274 -0.109056 -0.960165
vn 0.129759 -0.108132 -0.985632
vn 0 -0.109053 -0.994036
vn -0.129759 -0.108132 -0.985632
vn -0.257274 -0.109056 -0.960165
vn -0.497019 -0.109058 -0.860859
vn -0.380438 -0.108135 -0.918462
vn -0.605194 -0.108133 -0.7887
vn -0.70289 -0.109053 -0.70289
vn -0.7887 -0.108133 -0.605194
vn -0.860859 -0.109058 -0.497019
vn -0.918462 -0.108135 -0.380438
vn -0.960165 -0.109056 -0.257274
vn -0.985632 -0.108132 -0.129759
vn -0.994036 -0.109053 7.51411e-09
vn -0.985632 -0.108132 0.129759
vn -0.960165 -0.109056 0.257274
vn -0.860859 -0.109058 0.497019
vn -0.918462 -0.108135 0.380438
vn -0.7887 -0.108133 0.605194
vn -0.70289 -0.109053 0.70289
vn -0.605194 -0.108133 0.7887
vn -0.497019 -0.109058 0.860859
vn -0.380438 -0.108135 0.918462
vn -0.257274 -0.109056 0.960165
vn -0.129759 -0.108132 0.985632
vn 0 -0.109053 0.994036
vn 0.129759 -0.108132 0.985632
vn 0.257274 -0.109056 0.960165
vn 0.497019 -0.109058 0.860859
vn 0.380438 -0.108135 0.918462
vn 0.605194 -0.108133 0.7887
vn 0.70289 -0.109053 0.70289
vn 0.7887 -0.108133 0.605194
vn 0.860859 -0.109058 0.497019
vn 0.918462 -0.108135 0.380438
vn 0.960165 -0.109057 0.257273
vn 0.985632 -0.108133 0.129759
vn -1.25743e-09 -1 -2.35768e-09
# 169 vertex normals

g default_Grp
# r default_Rgn
usemtl Mat.1
f 3/4/4 27/3/3 26/2/2 2/1/1
f 4/6/6 28/5/5 27/3/3 3/4/4
f 5/8/8 29/7/7 28/5/5 4/6/6
f 6/10/10 30/9/9 29/7/7 5/8/8
f 7/12/12 31/11/11 30/9/9 6/10/10
f 8/14/14 32/13/13 31/11/11 7/12/12
f 9/16/16 33/15/15 32/13/13 8/14/14
f 10/18/18 34/17/17 33/15/15 9/16/16
f 11/20/20 35/19/19 34/17/17 10/18/18
f 12/22/22 36/21/21 35/19/19 11/20/20
f 13/24/24 37/23/23 36/21/21 12/22/22
f 14/26/26 38/25/25 37/23/23 13/24/24
f 15/28/28 39/27/27 38/25/25 14/26/26
f 16/30/30 40/29/29 39/27/27 15/28/28
f 17/32/32 41/31/31 40/29/29 16/30/30
f 18/34/34 42/33/33 41/31/31 17/32/32
f 19/36/36 43/35/35 42/33/33 18/34/34
f 20/38/38 44/37/37 43/35/35 19/36/36
f 21/40/40 45/39/39 44/37/37 20/38/38
f 22/42/42 46/41/41 45/39/39 21/40/40
f 23/44/44 47/43/43 46/41/41 22/42/42
f 24/46/46 48/45/45 47/43/43 23/44/44
f 25/48/48 49/47/47 48/45/45 24/46/46
f 2/50/1 26/49/2 49/47/47 25/48/48
f 27/3/3 51/52/50 50/51/49 26/2/2
f 28/5/5 52/53/51 51/52/50 27/3/3
f 29/7/7 53/54/52 52/53/51 28/5/5
f 30/9/9 54/55/53 53/54/52 29/7/7
f 31/11/11 55/56/54 54/55/53 30/9/9
f 32/13/13 56/57/55 55/56/54 31/11/11
f 33/15/15 57/58/56 56/57/55 32/13/13
f 34/17/17 58/59/57 57/58/56 33/15/15
f 35/19/19 59/60/58 58/59/57 34/17/17
f 36/21/21 60/61/59 59/60/58 35/19/19
f 37/23/23 61/62/60 60/61/59 36/21/21
f 38/25/25 62/63/61 61/62/60 37/23/23
f 39/27/27 63/64/62 62/63/61 38/25/25
f 40/29/29 64/65/63 63/64/62 39/27/27
f 41/31/31 65/66/64 64/65/63 40/29/29
f 42/33/33 66/67/65 65/66/64 41/31/31
f 43/35/35 67/68/66 66/67/65 42/33/33
f 44/37/37 68/69/67 67/68/66 43/35/35
f 45/39/39 69/70/68 68/69/67 44/37/37
f 46/41/41 70/71/69 69/70/68 45/39/39
f 47/43/43 71/72/70 70/71/69 46/41/41
f 48/45/45 72/73/71 71/72/70 47/43/43
f 49/47/47 73/74/72 72/73/71 48/45/45
f 26/49/2 50/75/49 73/74/72 49/47/47
f 51/52/50 75/77/74 74/76/73 50/51/49
f 52/53/51 76/78/75 75/77/74 51/52/50
f 53/54/52 77/79/76 76/78/75 52/53/51
f 54/55/53 78/80/77 77/79/76 53/54/52
f 55/56/54 79/81/78 78/80/77 54/55/53
f 56/57/55 80/82/79 79/81/78 55/56/54
f 57/58/56 81/83/80 80/82/79 56/57/55
f 58/59/57 82/84/81 81/83/80 57/58/56
f 59/60/58 83/85/82 82/84/81 58/59/57
f 60/61/59 84/86/83 83/85/82 59/60/58
f 61/62/60 85/87/84 84/86/83 60/61/59
f 62/63/61 86/88/85 85/87/84 61/62/60
f 63/64/62 87/89/86 86/88/85 62/63/61
f 64/65/63 88/90/87 87/89/86 63/64/62
f 65/66/64 89/91/88 88/90/87 64/65/63
f 66/67/65 90/92/89 89/91/88 65/66/64
f 67/68/66 91/93/90 90/92/89 66/67/65
f 68/69/67 92/94/91 91/93/90 67/68/66
f 69/70/68 93/95/92 92/94/91 68/69/67
f 70/71/69 94/96/93 93/95/92 69/70/68
f 71/72/70 95/97/94 94/96/93 70/71/69
f 72/73/71 96/98/95 95/97/94 71/72/70
f 73/74/72 97/99/96 96/98/95 72/73/71
f 50/75/49 74/100/73 97/99/96 73/74/72
f 75/77/74 99/102/98 98/101/97 74/76/73
f 76/78/75 100/103/99 99/102/98 75/77/74
f 77/79/76 101/104/100 100/103/99 76/78/75
f 78/80/77 102/105/101 101/104/100 77/79/76
f 79/81/78 103/106/102 102/105/101 78/80/77
f 80/82/79 104/107/103 103/106/102 79/81/78
f 81/83/80 105/108/104 104/107/103 80/82/79
f 82/84/81 106/109/105 105/108/104 81/83/80
f 83/85/82 107/110/106 106/109/105 82/84/81
f 84/86/83 108/111/107 107/110/106 83/85/82
f 85/87/84 109/112/108 108/111/107 84/86/83
f 86/88/85 110/113/109 109/112/108 85/87/84
f 87/89/86 111/114/110 110/113/109 86/88/85
f 88/90/87 112/115/111 111/114/110 87/89/86
f 89/91/88 113/116/112 112/115/111 88/90/87
f 90/92/89 114/117/113 113/116/112 89/91/88
f 91/93/90 115/118/114 114/117/113 90/92/89
f 92/94/91 116/119/115 115/118/114 91/93/90
f 93/95/92 117/120/116 116/119/115 92/94/91
f 94/96/93 118/121/117 117/120/116 93/95/92
f 95/97/94 119/122/118 118/121/117 94/96/93
f 96/98/95 120/123/119 119/122/118 95/97/94
f 97/99/96 121/124/120 120/123/119 96/98/95
f 74/100/73 98/125/97 121/124/120 97/99/96
f 158/127/122 122/126/121 98/101/97
f 158/127/122 98/101/97 99/102/98 123/128/123
f 157/130/125 100/103/99 124/129/124
f 100/103/99 157/130/125 123/128/123 99/102/98
f 100/103/99 101/104/100 125/132/127 148/131/126
f 124/129/124 100/103/99 148/131/126
f 102/105/101 162/133/128 125/132/127 101/104/100
f 162/133/128 102/105/101 126/134/129
f 102/105/101 103/106/102 127/136/131 147/135/130
f 126/134/129 102/105/101 147/135/130
f 104/107/103 128/138/133 166/137/132
f 166/137/132 127/136/131 103/106/102 104/107/103
f 146/139/134 128/138/133 104/107/103
f 146/139/134 104/107/103 105/108/104 129/140/135
f 153/142/137 106/109/105 130/141/136
f 106/109/105 153/142/137 129/140/135 105/108/104
f 106/109/105 107/110/106 131/144/139 161/143/138
f 130/141/136 106/109/105 161/143/138
f 108/111/107 152/145/140 131/144/139 107/110/106
f 152/145/140 108/111/107 132/146/141
f 108/111/107 109/112/108 133/148/143 168/147/142
f 132/146/141 108/111/107 168/147/142
f 110/113/109 134/150/145 150/149/144
f 150/149/144 133/148/143 109/112/108 110/113/109
f 149/151/146 134/150/145 110/113/109
f 149/151/146 110/113/109 111/114/110 135/152/147
f 156/154/149 112/115/111 136/153/148
f 112/115/111 156/154/149 135/152/147 111/114/110
f 112/115/111 113/116/112 137/156/151 151/155/150
f 136/153/148 112/115/111 151/155/150
f 114/117/113 169/157/152 137/156/151 113/116/112
f 169/157/152 114/117/113 138/158/153
f 114/117/113 115/118/114 139/160/155 155/159/154
f 138/158/153 114/117/113 155/159/154
f 116/119/115 140/162/157 160/161/156
f 160/161/156 139/160/155 115/118/114 116/119/115
f 164/163/158 140/162/157 116/119/115
f 164/163/158 116/119/115 117/120/116 141/164/159
f 165/166/161 118/121/117 142/165/160
f 118/121/117 165/166/161 141/164/159 117/120/116
f 118/121/117 119/122/118 143/168/163 163/167/162
f 142/165/160 118/121/117 163/167/162
f 120/123/119 159/169/164 143/168/163 119/122/118
f 159/169/164 120/123/119 144/170/165
f 120/123/119 121/124/120 145/172/167 167/171/166
f 144/170/165 120/123/119 167/171/166
f 121/124/120 98/125/97 122/174/121 154/173/168
f 121/124/120 154/173/168 145/172/167
f 3/4/4 2/1/1 1/175/169
f 4/6/6 3/4/4 1/176/169
f 5/8/8 4/6/6 1/177/169
f 6/10/10 5/8/8 1/178/169
f 7/12/12 6/10/10 1/179/169
f 8/14/14 7/12/12 1/180/169
f 9/16/16 8/14/14 1/181/169
f 10/18/18 9/16/16 1/182/169
f 11/20/20 10/18/18 1/183/169
f 12/22/22 11/20/20 1/184/169
f 13/24/24 12/22/22 1/185/169
f 14/26/26 13/24/24 1/186/169
f 15/28/28 14/26/26 1/187/169
f 16/30/30 15/28/28 1/188/169
f 17/32/32 16/30/30 1/189/169
f 18/34/34 17/32/32 1/190/169
f 19/36/36 18/34/34 1/191/169
f 20/38/38 19/36/36 1/192/169
f 21/40/40 20/38/38 1/193/169
f 22/42/42 21/40/40 1/194/169
f 23/44/44 22/42/42 1/195/169
f 24/46/46 23/44/44 1/196/169
f 25/48/48 24/46/46 1/197/169
f 2/50/1 25/48/48 1/198/169
# 168 facets

v 0 0 -0
v 30 0 -0
v 29.3194 0 -5.1698
v -5.1698 0 29.3194
v -22.8064 0 -19.1369
v -25.9808 0 -15
v 27.9763 0 -10.1825
v 10.1825 0 27.9763
v -27.9763 0 -10.1825
v 25.9808 0 -15
v 22.8064 0 -19.1369
v 15 0 25.9808
v 19.1369 0 -22.8064
v -29.3194 0 -5.1698
v 15 0 -25.9808
v 22.8064 0 19.1369
v 10.1825 0 -27.9763
v 25.9808 0 15
v 1.77636e-15 0 -30
v 5.1698 0 -29.3194
v 27.9763 0 10.1825
v -5.1698 0 -29.3194
v -19.1369 0 22.8064
v -10.1825 0 -27.9763
v -15 0 25.9808
v -19.1369 0 -22.8064
v -15 0 -25.9808
v -10.1825 0 27.9763
v -5.51091e-15 0 30
v -27.9763 0 10.1825
v -30 0 -3.55271e-15
v 19.1369 0 22.8064
v -29.3194 0 5.1698
v -25.9808 0 15
v -22.8064 0 19.1369
v 29.3194 0 5.1698
v 5.1698 0 29.3194
v 28.9778 0 7.76457
v 28.9778 0 -7.76457
v 7.76457 0 -28.9778
v -21.2132 0 -21.2132
v -7.76457 0 28.9778
v -7.76457 0 -28.9778
v 21.2132 0 -21.2132
v 7.76457 0 28.9778
v -28.9778 0 7.76457
v -28.9778 0 -7.76457
v 21.2132 0 21.2132
v -21.2132 0 21.2132
# 49 vertices

vt 0.50000 0.50000
vt 0.20681 0.55170
vt 0.20000 0.50000
vt 0.22024 0.60183
vt 0.21022 0.57765
vt 0.24019 0.65000
vt 0.27194 0.69137
vt 0.30863 0.72806
vt 0.28787 0.71213
vt 0.35000 0.75981
vt 0.39817 0.77976
vt 0.44830 0.79319
vt 0.42235 0.78978
vt 0.50000 0.80000
vt 0.55170 0.79319
vt 0.60183 0.77976
vt 0.57765 0.78978
vt 0.65000 0.75981
vt 0.69137 0.72806
vt 0.72806 0.69137
vt 0.71213 0.71213
vt 0.75981 0.65000
vt 0.77976 0.60183
vt 0.79319 0.55170
vt 0.78978 0.57765
vt 0.80000 0.50000
vt 0.79319 0.44830
vt 0.77976 0.39817
vt 0.78978 0.42235
vt 0.75981 0.35000
vt 0.72806 0.30863
vt 0.69137 0.27194
vt 0.71213 0.28787
vt 0.65000 0.24019
vt 0.60183 0.22024
vt 0.55170 0.20681
vt 0.57765 0.21022
vt 0.50000 0.20000
vt 0.44830 0.20681
vt 0.39817 0.22024
vt 0.42235 0.21022
vt 0.35000 0.24019
vt 0.30863 0.27194
vt 0.27194 0.30863
vt 0.28787 0.28787
vt 0.24019 0.35000
vt 0.22024 0.39817
vt 0.20681 0.44830
vt 0.21022 0.42235
# 49 texture coordinates

vn 0 1 -0
# 1 vertex normals

usemtl Mat
f 171/201/170 172/200/170 170/199/170
f 170/199/170 172/200/170 208/203/170 176/202/170
f 176/202/170 179/204/170 170/199/170
f 179/204/170 180/205/170 170/199/170
f 170/199/170 180/205/170 213/207/170 182/206/170
f 182/206/170 184/208/170 170/199/170
f 184/208/170 186/209/170 170/199/170
f 209/211/170 189/210/170 170/199/170 186/209/170
f 189/210/170 188/212/170 170/199/170
f 188/212/170 191/213/170 170/199/170
f 170/199/170 191/213/170 212/215/170 193/214/170
f 193/214/170 196/216/170 170/199/170
f 196/216/170 195/217/170 170/199/170
f 210/219/170 174/218/170 170/199/170 195/217/170
f 174/218/170 175/220/170 170/199/170
f 175/220/170 178/221/170 170/199/170
f 216/223/170 183/222/170 170/199/170 178/221/170
f 183/222/170 200/224/170 170/199/170
f 200/224/170 202/225/170 170/199/170
f 170/199/170 202/225/170 215/227/170 199/226/170
f 199/226/170 203/228/170 170/199/170
f 203/228/170 204/229/170 170/199/170
f 170/199/170 204/229/170 218/231/170 192/230/170
f 192/230/170 194/232/170 170/199/170
f 194/232/170 197/233/170 170/199/170
f 211/235/170 173/234/170 170/199/170 197/233/170
f 173/234/170 198/236/170 170/199/170
f 198/236/170 206/237/170 170/199/170
f 170/199/170 206/237/170 214/239/170 177/238/170
f 177/238/170 181/240/170 170/199/170
f 181/240/170 201/241/170 170/199/170
f 170/199/170 201/241/170 217/243/170 185/242/170
f 185/242/170 187/244/170 170/199/170
f 187/244/170 190/245/170 170/199/170
f 207/247/170 205/246/170 170/199/170 190/245/170
f 205/246/170 171/201/170 170/199/170
# 36 facets

